<?xml version="1.0" standalone="yes"?>

<svg version="1.1" viewBox="0.0 0.0 805.7480314960629 389.7270341207349" fill="none" stroke="none" stroke-linecap="square" stroke-miterlimit="10" xmlns="http://www.w3.org/2000/svg" xmlns:xlink="http://www.w3.org/1999/xlink"><clipPath id="p.0"><path d="m0 0l805.74805 0l0 389.72702l-805.74805 0l0 -389.72702z" clip-rule="nonzero"></path></clipPath><g clip-path="url(#p.0)"><path fill="#000000" fill-opacity="0.0" d="m0 0l805.74805 0l0 389.72702l-805.74805 0z" fill-rule="evenodd"></path><path fill="#000000" fill-opacity="0.0" d="m328.1838 170.8818l0 -72.39016l-158.90434 -89.16356l-159.78603 88.27971l0 181.85815l159.78603 90.04523l158.90434 -89.163574l0 -71.5063" fill-rule="evenodd"></path><path stroke="#000000" stroke-width="4.0" stroke-linejoin="round" stroke-linecap="butt" d="m328.1838 170.8818l0 -72.39016l-158.90434 -89.16356l-159.78603 88.27971l0 181.85815l159.78603 90.04523l158.90434 -89.163574l0 -71.5063" fill-rule="evenodd"></path><path fill="#000000" fill-opacity="0.0" d="m110.74803 86.50131l975.11804 0l0 129.98425l-975.11804 0z" fill-rule="evenodd"></path><path fill="#000000" d="m150.06053 116.30131q7.6875 0 12.921875 3.796875q5.25 3.796875 7.84375 10.156258q2.609375 6.359375 2.609375 14.046875q0 7.921875 -2.609375 14.25q-2.59375 6.3125 -7.84375 10.03125q-5.234375 3.71875 -12.921875 3.71875l-20.390625 0q-1.046875 0 -1.734375 -0.671875q-0.671875 -0.6875 -0.671875 -1.734375l0 -51.187508q0 -1.046875 0.671875 -1.71875q0.6875 -0.6875 1.734375 -0.6875l20.390625 0zm-0.796875 51.281258q9.609375 0 14.328125 -6.4375q4.71875 -6.4375 4.71875 -16.84375q0 -6.484375 -2.0 -11.71875q-2.0 -5.2343826 -6.28125 -8.390633q-4.28125 -3.171875 -10.765625 -3.171875l-16.953125 0l0 46.562508l16.953125 0zm62.4068 2.234375q-0.078125 1.046875 -0.796875 1.765625q-0.71875 0.71875 -1.765625 0.71875q-1.125 0 -1.8125 -0.671875q-0.671875 -0.6875 -0.671875 -1.8125l0 -51.031258q0 -1.125 0.71875 -1.796875q0.71875 -0.6875 1.84375 -0.6875q1.046875 0 1.765625 0.71875q0.71875 0.71875 0.71875 1.765625l0 51.031258zm77.6837 -25.75q1.03125 0 1.703125 0.6875q0.6875 0.671875 0.6875 1.703125l0 19.28125q0 1.359375 -1.203125 2.15625q-3.59375 2.484375 -8.0 3.84375q-4.390625 1.359375 -8.953125 1.359375q-8.15625 0 -14.71875 -3.75q-6.5624847 -3.765625 -10.32811 -10.328125q-3.75 -6.5625 -3.75 -14.71875q0 -8.15625 3.75 -14.71875q3.765625 -6.5625076 10.32811 -10.312508q6.5625 -3.765625 14.71875 -3.765625q4.234375 0 8.1875 1.046875q3.96875 1.03125 7.09375 2.953125q1.125 0.71875 1.125 2.0q0 1.03125 -0.6875 1.765625q-0.671875 0.71875 -1.5625 0.71875q-0.796875 0 -1.4375 -0.40625q-6.0 -3.28125 -12.71875 -3.28125q-6.796875 0 -12.203125 3.125q-5.3906097 3.109375 -8.437485 8.593758q-3.046875 5.484375 -3.046875 12.28125q0 6.796875 3.046875 12.28125q3.046875 5.484375 8.437485 8.609375q5.40625 3.109375 12.203125 3.109375q3.4375 0 6.921875 -0.953125q3.484375 -0.96875 6.203125 -2.640625l0 -15.84375l-12.640625 0q-1.046875 0 -1.765625 -0.671875q-0.71875 -0.6875 -0.71875 -1.734375q0 -1.03125 0.71875 -1.703125q0.71875 -0.6875 1.765625 -0.6875l15.28125 0zm94.07678 -27.765633q1.03125 0 1.703125 0.640625q0.6875 0.640625 0.6875 1.671875q0 1.046875 -0.6875 1.65625q-0.671875 0.59375 -1.703125 0.59375l-16.5625 0l0 49.031258q0 1.046875 -0.71875 1.734375q-0.71875 0.671875 -1.765625 0.671875q-1.109375 0 -1.796875 -0.671875q-0.671875 -0.6875 -0.671875 -1.734375l0 -49.031258l-16.5625 0q-1.046875 0 -1.734375 -0.640625q-0.671875 -0.640625 -0.671875 -1.6875q0 -0.953125 0.671875 -1.59375q0.6875 -0.640625 1.734375 -0.640625l38.078125 0zm76.23804 52.796883q0.15625 0.640625 0.15625 0.96875q0 1.03125 -0.71875 1.671875q-0.71875 0.640625 -1.671875 0.640625q-0.8125 0 -1.40625 -0.4375q-0.59375 -0.4375 -0.921875 -1.15625l-6.0 -14.640625l-26.0 0l-5.921875 14.640625q-0.640625 1.59375 -2.15625 1.59375q-1.125 0 -1.6875 -0.5625q-0.546875 -0.5625 -0.640625 -1.515625l0 -0.234375q0 -0.484375 0.09375 -0.71875l21.109375 -51.687508q0.640625 -1.59375 2.40625 -1.59375q0.796875 0 1.390625 0.4375q0.609375 0.4375 0.921875 1.15625l21.046875 51.437508zm-34.71875 -17.671875l22.234375 0l-11.203125 -27.359383l-11.03125 27.359383zm97.52182 16.15625q1.03125 0 1.703125 0.640625q0.6875 0.640625 0.6875 1.671875q0 1.046875 -0.6875 1.734375q-0.671875 0.671875 -1.703125 0.671875l-28.56253 0q-1.046875 0 -1.734375 -0.671875q-0.671875 -0.6875 -0.671875 -1.734375l0 -51.187508q0 -1.046875 0.71875 -1.71875q0.71875 -0.6875 1.84375 -0.6875q1.046875 0 1.765625 0.6875q0.71875 0.671875 0.71875 1.71875l0 48.875008l25.921906 0z" fill-rule="nonzero"></path><path fill="#000000" fill-opacity="0.0" d="m105.11286 180.00262l952.9449 0l0 108.44095l-952.9449 0z" fill-rule="evenodd"></path><path fill="#000000" d="m292.7465 207.0231q1.125 0 1.796875 0.6875q0.6875 0.671875 0.6875 1.796875l0 51.03125q-0.078125 1.125 -0.796875 1.8125q-0.71875 0.671875 -1.765625 0.671875q-1.03125 0 -1.75 -0.71875q-0.71875 -0.71875 -0.71875 -1.765625l0 -23.828125l-32.484375 0l0 23.828125q-0.078125 1.046875 -0.796875 1.765625q-0.71875 0.71875 -1.765625 0.71875q-1.125 0 -1.8125 -0.671875q-0.671875 -0.6875 -0.671875 -1.8125l0 -51.03125q0 -1.125 0.71875 -1.796875q0.71875 -0.6875 1.84375 -0.6875q1.046875 0 1.765625 0.71875q0.71875 0.71875 0.71875 1.765625l0 22.5625l32.484375 0l0 -22.5625q0 -1.046875 0.75 -1.765625q0.765625 -0.71875 1.796875 -0.71875zm101.68616 -0.078125q1.046875 0 1.765625 0.6875q0.71875 0.671875 0.71875 1.546875q0 0.5625 -0.25 1.203125l-21.359375 51.046875q-0.3125 0.71875 -0.953125 1.15625q-0.640625 0.4375 -1.359375 0.4375q-0.71875 0 -1.328125 -0.390625q-0.59375 -0.40625 -0.921875 -1.125l-21.265625 -50.96875q-0.25 -0.46875 -0.25 -1.28125q0 -1.03125 0.71875 -1.671875q0.71875 -0.640625 1.609375 -0.640625q1.671875 0 2.390625 1.765625l19.28125 46.078125l18.96875 -46.25q0.390625 -0.71875 0.984375 -1.15625q0.609375 -0.4375 1.25 -0.4375zm66.3212 51.359375q1.03125 0 1.71875 0.71875q0.6875 0.71875 0.6875 1.6875q0 1.03125 -0.6875 1.671875q-0.6875 0.640625 -1.71875 0.640625l-29.359375 0q-1.046875 0 -1.734375 -0.671875q-0.671875 -0.6875 -0.671875 -1.734375l0 -51.1875q0 -1.046875 0.671875 -1.71875q0.6875 -0.6875 1.734375 -0.6875l29.359375 0q1.03125 0 1.71875 0.6875q0.6875 0.671875 0.6875 1.71875q0 1.03125 -0.6875 1.671875q-0.6875 0.640625 -1.71875 0.640625l-26.71875 0l0 20.078125l23.125 0q1.03125 0 1.703125 0.6875q0.6875 0.671875 0.6875 1.71875q0 1.03125 -0.6875 1.671875q-0.671875 0.640625 -1.703125 0.640625l-23.125 0l0 21.765625l26.71875 0zm88.323 0q1.03125 0 1.703125 0.640625q0.6875 0.640625 0.6875 1.671875q0 1.046875 -0.6875 1.734375q-0.671875 0.671875 -1.703125 0.671875l-28.5625 0q-1.046875 0 -1.734375 -0.671875q-0.671875 -0.6875 -0.671875 -1.734375l0 -51.1875q0 -1.046875 0.71875 -1.71875q0.71875 -0.6875 1.84375 -0.6875q1.046875 0 1.765625 0.6875q0.71875 0.671875 0.71875 1.71875l0 48.875l25.921875 0zm75.19684 1.515625q0.15625 0.640625 0.15625 0.96875q0 1.03125 -0.71875 1.671875q-0.71875 0.640625 -1.671875 0.640625q-0.8125 0 -1.40625 -0.4375q-0.59375 -0.4375 -0.921875 -1.15625l-6.0 -14.640625l-26.0 0l-5.921875 14.640625q-0.640625 1.59375 -2.15625 1.59375q-1.125 0 -1.6875 -0.5625q-0.546875 -0.5625 -0.640625 -1.515625l0 -0.234375q0 -0.484375 0.09375 -0.71875l21.109375 -51.6875q0.640625 -1.59375 2.40625 -1.59375q0.796875 0 1.390625 0.4375q0.609375 0.4375 0.921875 1.15625l21.046875 51.4375zm-34.71875 -17.671875l22.234375 0l-11.203125 -27.359375l-11.03125 27.359375zm96.474915 -8.890625q4.796875 1.203125 7.828125 4.8125q3.046875 3.59375 3.046875 9.359375q0 7.828125 -4.84375 11.71875q-4.828125 3.875 -12.03125 3.875l-21.515625 0q-1.046875 0 -1.734375 -0.671875q-0.671875 -0.6875 -0.671875 -1.734375l0 -51.1875q0 -1.046875 0.671875 -1.71875q0.6875 -0.6875 1.734375 -0.6875l21.203125 0q6.71875 0 10.515625 3.6875q3.796875 3.671875 3.796875 10.078125q0 4.234375 -2.078125 7.59375q-2.078125 3.359375 -5.921875 4.875zm2.875 -12.078125q0 -4.390625 -2.59375 -6.90625q-2.59375 -2.53125 -7.234375 -2.53125l-17.84375 0l0 20.0l17.84375 0q4.3125 -0.078125 7.0625 -2.796875q2.765625 -2.71875 2.765625 -7.765625zm-9.109375 37.125q5.359375 0 8.671875 -2.71875q3.328125 -2.71875 3.328125 -8.15625q0 -5.609375 -3.40625 -8.25q-3.390625 -2.640625 -8.75 -2.640625l-18.40625 0l0 21.765625l18.5625 0zm65.35742 5.515625q-5.765625 0 -10.203125 -1.921875q-4.4375 -1.921875 -8.59375 -6.0q-0.96875 -0.796875 -0.96875 -1.921875q0 -0.953125 0.765625 -1.75q0.765625 -0.796875 1.71875 -0.796875q0.953125 0 1.765625 0.796875q6.234375 6.875 15.59375 6.875q5.765625 0 9.5625 -2.71875q3.796875 -2.71875 3.796875 -7.125q0 -3.4375 -1.890625 -5.71875q-1.875 -2.28125 -4.921875 -3.71875q-3.03125 -1.4375 -7.75 -2.953125q-5.109375 -1.53125 -8.59375 -3.359375q-3.484375 -1.84375 -5.640625 -4.921875q-2.15625 -3.078125 -2.15625 -7.796875q0 -4.25 2.28125 -7.53125q2.28125 -3.28125 6.390625 -5.15625q4.125 -1.875 9.484375 -1.875q4.875 0 9.15625 1.640625q4.28125 1.640625 6.84375 4.671875q1.203125 1.359375 1.203125 2.328125q0 0.875 -0.8125 1.640625q-0.796875 0.75 -1.75 0.75q-0.796875 0 -1.359375 -0.546875q-2.15625 -2.5625 -5.765625 -4.15625q-3.59375 -1.609375 -7.515625 -1.609375q-5.84375 0 -9.53125 2.609375q-3.671875 2.59375 -3.671875 7.0625q0 4.640625 3.515625 7.125q3.53125 2.484375 10.09375 4.5625q5.671875 1.671875 9.265625 3.4375q3.609375 1.765625 5.890625 5.0q2.28125 3.234375 2.28125 8.515625q0 4.078125 -2.359375 7.40625q-2.359375 3.3125 -6.5625 5.234375q-4.203125 1.921875 -9.5625 1.921875z" fill-rule="nonzero"></path></g></svg>

